<?xml version="1.0" encoding="utf-8"?>
<svg version="1.1" xmlns="http://www.w3.org/2000/svg" viewBox="360 842 180 180">
	<circle cx="450" cy="932" r="90" fill="#593d93"/>
	<path transform="translate(0, 15)" d="m 452.96631,972.94238 h -2.19727 q -27.02636,0 -42.04101,-14.9414 -15.01465,-14.94141 -15.01465,-41.60157 0,-26.58691 14.94141,-41.6748 15.01464,-15.08789 41.30859,-15.08789 26.58691,0 41.38183,14.9414 14.86817,14.94141 14.86817,41.82129 0,18.45704 -7.91016,31.78711 -7.83691,13.33008 -22.63183,20.06836 l 22.0459,24.60938 H 470.8374 Z m -3.00293,-92.87109 q -12.89063,0 -19.99512,9.52148 -7.10449,9.52149 -7.10449,26.80664 0,17.57813 6.95801,26.95313 6.95801,9.30176 20.1416,9.30176 12.96387,0 20.06836,-9.52149 7.10449,-9.52148 7.10449,-26.7334 0,-17.28515 -7.10449,-26.80664 -7.10449,-9.52148 -20.06836,-9.52148 z" fill="#FFFFFF"/>
</svg>
