<?xml version="1.0" encoding="utf-8"?>
<svg version="1.1" xmlns="http://www.w3.org/2000/svg" xmlns:xlink="http://www.w3.org/1999/xlink" viewBox="545 925 1170 180">
<style type="text/css">
	.st0{fill:currentColor;}
	.st1{fill:#FDB504;}
	.st2{fill:#553A8C;}
	.st3{fill:#79542B;}
	.st4{fill:#269B39;}
	.st5{fill:#FFFFFF;}
	.st6{fill:#2EB73E;}
	.st7{fill:#E54D1A;}
	.st8{fill:#FFDD17;}
	.st9{fill:#6366F1;}
</style>
	<path class="st0" d="M1412,1069.7h130v-130h-130V1069.7z M1447.3,975h59.4v59.4h-59.4V975z"/>
	<path class="st0" d="M687.5,1034c4.3-9,6.5-19,6.5-29.7c0-12.8-3-24.4-8.9-34.6c-5.9-10.2-14.1-18.2-24.2-23.9
		c-10.2-5.7-21.5-8.5-33.8-8.5c-12.2,0-23.5,2.9-33.7,8.5c-10.2,5.7-18.4,13.7-24.4,23.9c-6,10.2-9,21.8-9,34.6
		c0,12.8,3,24.4,9,34.6c6,10.2,14.2,18.2,24.4,23.9c10.2,5.7,21.6,8.6,33.7,8.6c3.7,0,7.3-0.3,10.9-0.9l13.8,20.7h48l-28.2-36
		C678.2,1049.4,683.6,1042.3,687.5,1034z M600.4,1004.2c0-9.4,2.4-16.8,7.1-22.1c4.7-5.3,11.1-7.9,19.5-7.9c8.3,0,14.7,2.6,19.5,7.9
		c4.8,5.3,7.2,12.8,7.2,22.1c0,9.1-2.4,16.5-7.2,21.9c-4.8,5.4-11.1,8-19.4,8c-8.4,0-14.8-2.6-19.5-7.9v0
		C602.8,1020.9,600.4,1013.5,600.4,1004.2z"/>
	<path class="st0" d="M787.2,1014.8c0,6.1-1.5,10.8-4.3,14.1c-2.8,3.3-7,4.8-12.8,4.8c-5.8,0-9.9-1.5-12.6-4.7
		c-2.8-3.2-4.2-8-4.2-14.2v-75.5h-39.6v75.5c0,12.1,2.4,22.4,7.2,30.9c4.8,8.5,11.5,15,19.9,19.3c8.3,4.3,17.9,6.4,28.5,6.4
		c10.6,0,20.3-2.2,29-6.4c8.8-4.3,15.8-10.8,20.9-19.3c5.1-8.5,7.7-18.9,7.7-30.8v-75.5h-39.8V1014.8z"/>
	<path class="st0" d="M888.6,939.3l-47.7,130.9h41.9l6.8-20.6H931l6.8,20.6h42.1l-47.5-130.9H888.6z M920.6,1018h-20.5l10.2-31
		L920.6,1018z"/>
	<path class="st0" d="M1054.9,974.9c4.8,0,9,1.1,12.6,3.4c3.6,2.2,6.5,5.6,8.5,9.9l0.6,1.3h42.2l-0.6-2.8
		c-3.2-14.9-10.5-26.9-21.6-35.6c-11.1-8.7-25-13.1-41.2-13.1c-12.8,0-24.2,2.8-34.1,8.4c-9.9,5.6-17.6,13.6-23,23.7
		c-5.4,10-8.1,21.6-8.1,34.3c0,12.9,2.7,24.5,8.1,34.5c5.4,10.1,13.1,18,23,23.7c9.9,5.6,21.3,8.4,34.1,8.4
		c16.2,0,30.1-4.4,41.2-13.1c11.1-8.7,18.4-20.7,21.6-35.6l0.6-2.8h-42.2l-0.6,1.3c-2.1,4.3-4.9,7.7-8.5,9.9
		c-3.6,2.3-7.8,3.4-12.6,3.4c-7.4,0-13.2-2.6-17.6-7.8c-4.4-5.3-6.7-12.7-6.7-21.8c0-9,2.3-16.3,6.7-21.7
		C1041.7,977.5,1047.4,974.9,1054.9,974.9z"/>
	<polygon class="st0" points="1260.9,939.3 1214.5,939.3 1178.9,988.7 1178.9,939.3 1139.1,939.3 1139.1,1070.1 1178.9,1070.1 
		1178.9,1019.8 1214.9,1070.1 1263.2,1070.1 1212.8,1002.8 	"/>
	<path class="st0" d="M1367.9,1002.8c4.1-2.1,7.5-4.9,10.3-8.5c4.2-5.4,6.3-12.1,6.3-20c0-11.1-4-19.8-11.9-26
		c-7.7-6-18.4-9.1-31.8-9.1H1278v130.9h64.8c13.9,0,24.8-3.3,32.6-9.7c7.9-6.5,12-15.6,12-27c0-7.8-2.4-14.8-7-20.8
		C1377,1008.2,1372.8,1005,1367.9,1002.8z M1317.8,1018.9h17.9c3.7,0,6.5,0.8,8.4,2.5c1.8,1.6,2.7,3.9,2.7,7c0,4.1-1.2,8.7-10.9,8.7
		h-18V1018.9z M1333.1,989.4h-15.4v-17.5h15.4c9.6,0,10.9,4.8,10.9,8.9C1344,984.8,1342.8,989.4,1333.1,989.4z"/>
	<polygon class="st0" points="1655.2,1005.1 1697.1,939.3 1651.6,939.3 1632.4,971.9 1610,939.3 1562.9,939.3 1607,1003.2 
		1564.6,1070.1 1610.1,1070.1 1629.8,1036.5 1653,1070.1 1700,1070.1 	"/>
</svg>
